<svg width="649" height="1153" viewBox="0 0 649 1153" fill="none" xmlns="http://www.w3.org/2000/svg">
<path d="M286.208 207.197L285.607 205.395L288.011 206.596C288.011 194.968 292.59 183.895 293.361 172.366C293.553 169.501 292.157 167.293 291.745 164.56C290.83 158.497 292.911 152.967 296.703 148.346C304.613 138.705 317.292 135.254 328.874 132.201C350.076 126.612 371.641 126.589 393.173 129.976C406.96 132.144 421.617 137.286 430.836 148.346C434.332 152.539 437.448 158.965 436.774 164.56C436.408 167.605 434.317 170.585 434.36 173.567C434.417 177.615 436.347 182.119 436.96 186.178C438.279 194.918 438.843 204.362 438.843 213.202H440.045C440.453 209.252 442.56 206.027 446.656 205.395C446.962 198.708 449.727 191.619 450.98 184.977C454.227 167.761 454.99 152.754 447.934 136.335C441.034 120.279 427.253 100.489 411.802 92.084C393.319 82.0295 365.205 83.0017 345.099 86.2289C329.879 88.6718 314.826 90.1617 303.635 101.904C292.019 114.094 278.661 130.962 275.191 147.745C272.854 159.044 274.318 170.799 276.475 181.975C278.027 190.012 277.799 203.753 286.208 207.197Z" fill="#1F1C17"/>
<path d="M302.146 258.994L300.944 265.6L305.151 264.999L305.752 272.205L309.357 275.808L307.554 277.61L311.761 276.409L310.559 281.213L314.165 280.613L312.963 284.216H317.169V289.62H320.174V295.025H322.578L321.977 298.028L323.779 301.03L336.399 308.837L335.798 311.84H342.408V320.247L346.615 318.445L349.018 320.247V322.649L352.023 323.85L352.624 320.848L355.028 324.451H362.239V322.049H366.445L364.642 318.445C366.183 315.617 369.991 313.913 371.853 317.244C369.057 319.111 371.053 321.867 373.656 322.649C376.674 317.811 384.961 322.405 386.877 316.644L397.092 313.641V308.837L395.891 305.234L400.097 304.033L398.895 305.834V306.435L401.9 302.832L400.097 300.43L401.9 302.231L402.501 300.43L407.909 299.829L404.904 295.626C407.458 295.332 408.304 294.603 408.51 292.023H410.313C410.36 288.043 411.768 286.275 415.721 285.417V280.012L419.327 280.613C416.969 276.852 418.508 275.21 418.726 271.004H421.129L424.134 266.801L426.538 261.396L425.937 258.393H428.341L431.345 251.788C436.7 250.276 434.96 241.634 435.71 237.375C436.297 234.037 437.727 231.229 438.007 227.767C439.526 208.972 436.913 191.138 435.526 172.519C435.35 170.142 436.877 168.206 437.226 165.913C438.151 159.852 436.525 153.67 433.438 148.498C427.728 138.931 415.733 133.817 405.505 130.828C382.188 124.014 355.18 125.012 331.591 130.099C318.746 132.869 301.875 137.248 295.091 149.699C292.968 153.596 291.989 159.113 292.659 163.511C293.007 165.794 294.614 167.763 294.498 170.117C294.158 177.061 291.865 184.094 291.384 191.135C290.891 198.309 291.909 205.594 291.227 212.754C290.12 224.395 293.311 235.71 295.378 246.983C296.234 251.65 296.387 258.208 302.146 258.994Z" fill="#E3BEAB"/>
<path d="M349.871 152.934C351.664 158.333 369.52 155.494 371.505 150.532L349.871 152.934Z" fill="#D1A58C"/>
<path d="M340.256 157.138V159.54C350.525 162.284 361.952 164.147 372.604 161.793C376.9 160.844 380.958 158.307 385.326 157.739V155.336C379.117 155.787 372.618 159.168 366.096 159.969C357.016 161.083 348.848 159.238 340.256 157.138Z" fill="#D4A68E"/>
<path d="M404.556 168.548V169.149L416.574 168.548H404.556Z" fill="#29201B"/>
<path d="M377.514 181.759C389.34 180.729 401.523 175.419 413.569 177.135C420.447 178.115 425.332 181.792 431.597 184.161C430.976 163.29 404.546 167.438 391.335 172.122C385.361 174.239 378.981 174.779 377.514 181.759Z" fill="black"/>
<path d="M298.192 193.77C303.534 192.272 306.826 187.209 312.614 185.896C325.445 182.984 339.58 187.954 352.275 189.566C351.665 182.197 339.321 180.896 333.045 179.766C326.319 178.554 314.82 172.969 308.07 176.972C305.114 178.725 302.028 183.563 300.449 186.573C299.203 188.948 298.331 191.082 298.192 193.77Z" fill="black"/>
<path d="M327.637 178.156V178.757L334.848 179.958L327.637 178.156Z" fill="#352E28"/>
<path d="M336.651 179.958V180.558C342.37 183.018 351.255 182.209 352.275 189.566H352.876V183.561L336.651 179.958Z" fill="#25211E"/>
<path d="M408.161 199.775C410.287 203.032 413.959 204.18 414.075 208.774C414.406 221.821 391.071 224.01 390.796 211.176C390.692 206.347 395.317 203.594 397.344 199.775C394.717 200.491 391.266 201.178 388.988 202.69C387.593 203.616 386.757 204.996 385.885 206.381C378.448 218.183 396.513 223.363 405.757 221.716C411.821 220.635 418.042 217.595 419.847 211.185C421.591 204.991 413.175 200.278 408.161 199.775Z" fill="#FCFCFE"/>
<path d="M399.148 200.165C386.076 204.123 392.642 222.906 405.757 219.118C418.903 215.321 411.95 196.288 399.148 200.165Z" fill="#372525"/>
<path d="M325.233 200.657C312.118 203.193 316.864 221.932 330.041 219.388C343.026 216.881 338.038 198.181 325.233 200.657Z" fill="#372525"/>
<path d="M334.247 200.976C335.795 203.207 338.146 205.29 338.236 208.182C338.684 222.642 315.972 224.599 316.42 209.383C316.516 206.097 320.297 203.827 321.628 200.976C313.418 201.357 308.732 211.052 314.007 217.779C316.323 220.733 319.894 221.215 323.431 221.37C330.529 221.681 339.501 221.546 344.72 215.917C350.365 209.828 339.851 201.422 334.247 200.976Z" fill="#FBFBFD"/>
<path d="M385.326 206.381H385.927C394.768 194.786 416.084 194.284 421.381 209.984C423.69 204.484 419.162 197.973 414.17 195.738C404.372 191.352 386.977 193.966 385.326 206.381Z" fill="black"/>
<path d="M421.982 206.381V209.984H421.382V208.182H420.781L419.579 214.188C422.271 212.632 423.17 209.235 421.982 206.381Z" fill="#261F19"/>
<path d="M309.609 208.783H310.811C313.545 196.881 330.893 196.161 339.653 201.58C342.819 203.538 343.884 207.352 346.867 209.383C346.448 189.882 309.795 188 309.609 208.783Z" fill="#0A0200"/>
<path d="M309.008 212.386H309.609C309.609 206.489 310.499 202.902 313.816 197.973C308.105 200.701 309.008 207.006 309.008 212.386Z" fill="#493431"/>
<path d="M309.609 208.783V213.587H310.811L309.609 208.783Z" fill="#2C150F"/>
<path d="M291.581 185.362L290.981 214.788H291.581L291.582 194.37L291.581 185.362Z" fill="#BEA294"/>
<path d="M290.38 193L289.178 205.611L286.774 204.41L289.779 212.817H290.38V193Z" fill="#0B0803"/>
<path d="M290.38 200.206L289.779 214.018C292.164 211.935 291.56 203.017 290.38 200.206Z" fill="#3F352C"/>
<path d="M281.967 202.177C279.368 206.185 272.913 205.285 270.707 211.185C264.781 227.033 271.008 242.068 282.319 253.37C285.498 256.546 290.262 262.968 295.187 262.229L295.788 264.631H296.389C296.275 260.708 294.552 257.112 294.087 253.221C292.605 240.809 291.801 211.73 274.756 210.584V209.383L287.976 214.788C287.976 207.666 286.712 206.948 281.967 202.177Z" fill="#E3BEAB"/>
<path d="M287.976 207.582L288.577 211.785H289.178L287.976 207.582Z" fill="#A27560"/>
<path d="M274.756 209.383V210.584C291.12 212.725 292.879 239.949 293.985 252.621L295.788 252.02L296.389 254.422H296.99L293.578 240.01L288.577 210.584H287.976V214.788L274.756 209.383Z" fill="#C98D71"/>
<path d="M448.423 199.775L442.978 206.416L441.813 215.989L455.634 209.383V208.783L449.024 204.579L448.423 199.775Z" fill="#E1BEAB"/>
<path d="M441.212 208.783V210.584H441.813L441.212 208.783Z" fill="#503E34"/>
<path d="M441.813 215.989V210.584H441.212L435.962 237.007L433.4 250.819V251.42C436.513 253.565 433.6 259.081 433.4 262.229H434.001C436.601 249.616 437.412 235.784 442.229 223.796C444.773 217.466 448.814 211.525 456.235 211.185V209.383C449.955 209.401 446.781 212.695 441.813 215.989Z" fill="#C78F74"/>
<path d="M456.235 209.383C454.828 211.56 452.385 211.211 450.226 212.439C447.682 213.887 445.36 216.442 443.95 218.992C436.512 232.445 437.468 249.588 432.799 264.031C445.482 254.554 456.805 242.464 458.81 226.198C459.494 220.65 460.355 213.789 456.235 209.383Z" fill="#E3BEAB"/>
<path d="M357.082 202.177L357.683 218.992H359.486C359.486 214.07 360.872 205.883 357.082 202.177Z" fill="#BC7F63"/>
<path d="M356.482 200.976V204.579H357.082V202.177C359.821 205.978 359.486 210.874 359.486 215.389H360.087L358.284 200.976H356.482Z" fill="#D29F8A"/>
<path d="M357.082 204.579L356.482 221.394L358.885 218.992L357.082 204.579Z" fill="#D4A790"/>
<path d="M380.519 247.216C382.255 252.346 381.907 252.616 380.519 258.025C386.458 256.31 387.343 248.269 380.519 247.216Z" fill="#B17A5C"/>
<path d="M349.27 256.224L349.871 247.817C344.62 248.636 345.107 254.061 349.27 256.224Z" fill="#B6745C"/>
<path d="M350.472 252.621V255.023H358.284V254.422H353.477V253.221H358.885L350.472 252.621Z" fill="#C88F74"/>
<path d="M370.303 256.224L380.518 254.422C378.13 250.741 371.699 252.491 370.303 256.224Z" fill="#B27257"/>
<path d="M353.477 253.221V254.422L363.693 256.824C361.567 252.98 357.386 253.222 353.477 253.221Z" fill="#B27153"/>
<path d="M363.693 255.623L361.289 256.224V256.824C362.653 257.224 364.407 257.514 363.693 255.623Z" fill="#CC9A7F"/>
<path d="M353.477 258.026L352.275 262.83H352.876L355.28 258.626L353.477 258.026Z" fill="#AB8D82"/>
<path d="M354.078 258.626L350.472 265.232H351.073L352.876 263.43V267.033H350.472V267.634H353.477L355.28 258.626H354.078Z" fill="#79655C"/>
<path d="M355.28 258.626L353.477 263.43V264.631L355.28 265.232C356.433 262.728 358.037 262.308 360.688 262.229V261.629L355.881 261.028L355.28 258.626Z" fill="#9D8078"/>
<path d="M367.298 269.435L369.702 270.036H370.303L367.899 268.234V265.232L372.706 267.033L370.904 261.629C373.715 263.33 374.504 266.968 375.11 270.036L376.913 267.033C374.398 266.705 374.545 262.57 374.509 260.428L376.312 264.031L397.344 264.631V264.031L376.913 263.43C376.623 259.637 373.56 258.762 370.63 261.37C368.122 263.602 367.31 266.23 367.298 269.435Z" fill="#AB8F83"/>
<path d="M361.289 259.827L355.28 265.232H357.683L356.481 271.237H358.284L360.087 265.232L357.683 262.83L360.087 264.631L363.092 259.827H361.289Z" fill="#866C5F"/>
<path d="M374.509 260.428C374.537 262.69 374.271 266.703 376.913 267.033L375.711 270.636L378.716 270.036C379.154 272.08 380.402 271.829 382.321 271.838L381.72 268.835C383.338 269.831 383.854 270.722 382.922 272.438V273.039L385.326 271.237L388.932 273.039L387.73 267.634H390.133V267.033L376.913 265.832L375.711 260.428H374.509Z" fill="#8A716A"/>
<path d="M370.904 261.629C371.062 263.676 371.312 264.572 373.307 265.232L372.706 261.629H370.904Z" fill="#6B594F"/>
<path d="M357.683 262.83L360.087 265.232V262.83H357.683Z" fill="#5E4F48"/>
<path d="M351.674 263.43L348.669 267.634L352.876 267.033V263.43H351.674Z" fill="#2B2219"/>
<path d="M361.89 263.43C359.498 265.743 358.557 267.932 358.284 271.237H356.482V268.234L353.477 272.438C351.741 271.806 350.967 271.484 349.871 273.039L351.674 272.438L356.482 273.039L354.679 276.642C358.285 276.036 358.847 273.312 358.885 270.036L366.096 271.837L369.702 268.835L367.298 269.435C367.328 266.908 367.458 265.407 369.702 264.031V263.43C366.521 264.124 366.191 267.337 364.894 270.036L361.289 270.636C361.235 268.924 362.653 264.898 364.294 267.634H364.894V264.631L361.89 263.43Z" fill="#C0A18F"/>
<path d="M401.551 263.43V265.832H402.152V264.031L403.955 264.631L401.551 263.43Z" fill="#B89B89"/>
<path d="M376.913 264.031C377.67 267.563 387.055 267.033 390.133 267.033C388.79 263.214 380.457 264.478 376.913 264.031Z" fill="#5C4B41"/>
<path d="M402.152 264.031L402.753 268.234H405.156L402.152 264.031Z" fill="#7D6A64"/>
<path d="M353.477 264.631C353.967 266.926 354.786 267.745 357.082 268.234L354.679 264.631H353.477Z" fill="#E5C5B0"/>
<path d="M388.932 264.631V265.232L390.133 267.033L396.143 265.232L395.542 267.033L397.344 266.433L397.945 270.636H400.349C400.267 263.687 394.348 264.631 388.932 264.631Z" fill="#847163"/>
<path d="M340.857 265.232L334.247 267.033L334.848 272.438L339.656 270.036C340.169 272.474 342.894 271.054 345.064 271.237L346.266 268.234L342.059 269.435L343.862 267.634L342.059 265.232H340.857Z" fill="#957C75"/>
<path d="M343.862 267.033H344.463L345.665 265.832L346.867 273.639L350.472 271.237L353.477 272.438C354.602 270.183 355.214 268.775 354.078 266.433H353.477C351.359 268.059 348.897 268.291 347.468 265.832H350.472C348.553 264.727 344.417 264.447 343.862 267.033Z" fill="#957B6A"/>
<path d="M355.28 265.232L357.082 267.634H357.683V265.232H355.28Z" fill="#B19484"/>
<path d="M367.899 265.232V268.234H370.303V271.837H373.307C373.262 268.051 371.823 265.818 367.899 265.232Z" fill="#947B74"/>
<path d="M372.706 265.232C373.015 268.027 374.137 273.319 376.913 274.24C378.808 271.32 381.874 273.45 384.725 273.639V273.039L378.716 270.036L375.711 270.636L374.509 265.232H372.706Z" fill="#C7A695"/>
<path d="M393.138 265.232V267.033L396.143 265.232H393.138Z" fill="#5B4F43"/>
<path d="M344.463 265.832L342.059 269.435L346.266 268.234L345.665 265.832H344.463Z" fill="#675549"/>
<path d="M347.468 265.832L349.871 268.234V267.634L350.472 266.433L347.468 265.832Z" fill="#503E32"/>
<path d="M362.491 265.832L361.289 270.636L364.894 270.036L364.294 265.832H362.491Z" fill="#A4887D"/>
<path d="M402.152 265.832V268.234L400.95 266.433H400.349L398.546 272.438H403.955L403.354 268.835C405.632 270.731 405.747 272.588 405.757 275.441C410.002 274.033 407.27 269.703 405.757 267.033L402.753 268.234L402.152 265.832Z" fill="#9C8577"/>
<path d="M404.556 265.832L406.358 269.435H406.959L404.556 265.832Z" fill="#C0A091"/>
<path d="M387.73 267.634V269.435L390.734 270.036L389.532 271.237V271.837L397.945 270.636L397.344 266.433L387.73 267.634Z" fill="#C2A595"/>
<path d="M338.454 267.033L336.651 271.237L339.656 267.033H338.454Z" fill="#726056"/>
<path d="M345.064 271.237L339.656 270.036L334.848 271.237H334.247L330.642 277.242H331.243L334.247 276.041V273.639C337.189 273.554 339.195 272.533 341.458 274.84H342.059L345.665 272.438V275.441L348.069 273.639L347.468 268.234L345.064 271.237Z" fill="#CBA797"/>
<path d="M350.472 268.234V270.036H352.876V268.234H350.472Z" fill="#D6B19E"/>
<path d="M381.72 268.835L384.124 272.438L383.523 268.835H381.72Z" fill="#604F48"/>
<path d="M387.73 269.435L388.931 272.438H389.532L390.734 270.036L387.73 269.435Z" fill="#A48571"/>
<path d="M330.041 271.837L329.44 280.845H330.642L332.444 271.837H330.041Z" fill="#9C8577"/>
<path d="M334.247 280.245C335.426 286.843 341.722 288.425 347.468 289.851C361.301 293.283 376.754 288.126 389.532 283.184C393.851 281.515 402.852 279.609 404.556 274.84C398.722 275.016 393.306 280.027 387.729 281.839C376.068 285.628 359.775 291.345 347.468 287.996C341.916 286.485 338.943 282.932 334.247 280.245Z" fill="#954023"/>
<path d="M431.597 252.02C431.361 255.151 429.901 256.838 427.391 258.626V259.227C429.9 259.144 431.16 258.843 431.597 256.224H434.602L435.203 251.42L431.597 252.02Z" fill="#8A7469"/>
<path d="M294.586 252.02L295.788 261.028L298.192 258.626V261.028L301.196 260.428C300.267 264.329 299.922 268.876 304.802 269.435V268.835H302.999L304.802 265.232L301.196 265.832L302.398 259.227C298.487 258.302 297.561 255.26 295.788 252.02H294.586Z" fill="#9B7260"/>
<path d="M428.593 258.026L431.597 255.023L428.593 258.026Z" fill="#C3A698"/>
<path d="M431.597 256.224C430.889 258.555 429.766 259.046 427.391 259.227L427.992 262.229C425.635 262.415 424.701 263.046 423.785 265.232L426.189 267.634L429.193 264.031L426.79 263.43V262.83H429.193L432.198 260.428V263.43H432.799L434.602 256.224H434.001V258.026H432.198L431.597 256.224Z" fill="#715844"/>
<path d="M432.198 256.224V258.026H434.001V256.224H432.198Z" fill="#45291D"/>
<path d="M296.99 258.626L296.389 265.232H296.99L299.394 261.629V265.832H300.595L301.196 260.428L298.192 261.028V258.626H296.99Z" fill="#4B443A"/>
<path d="M426.189 258.626L425.588 261.629V262.229H427.992L426.189 258.626Z" fill="#B3947F"/>
<path d="M432.799 259.227V262.83H433.4L432.799 259.227Z" fill="#917F71"/>
<path d="M428.593 263.43L424.987 268.234C425.372 272.255 423.288 274.569 421.535 277.944C417.905 284.929 413.711 290.962 409.359 297.415C407.367 300.371 406.528 304.333 402.753 305.467L390.734 321.681L375.711 323.482C372.927 327.368 359.847 327.272 355.282 327.074C352.506 326.954 349.299 323.425 348.069 327.085C345.224 326.622 344.358 325.006 343.862 322.281C339.375 322.038 336.662 319.007 334.848 315.075H332.444L331.243 310.871H328.839C328.503 308.497 327.578 306.309 325.233 305.467V302.464L322.83 299.461H321.027V296.459C317.703 294.588 312.47 286.866 311.412 283.247C307.703 281.224 304.468 274.781 304.201 270.636C301.068 268.945 299.496 265.062 299.394 261.629C293.586 263.669 300.781 274.015 302.537 277.242C310.854 292.528 319.275 307.712 331.297 320.477C343.482 333.416 355.053 329.884 370.904 329.497C376.622 329.357 385.813 330.012 390.678 326.633C401.97 318.79 409.65 303.363 417.29 292.255C423.452 283.295 431.966 271.657 432.198 260.428L428.593 263.43Z" fill="#08110C"/>
<path d="M429.194 261.028L426.79 262.83V263.43C428.673 263.506 429.887 263.061 429.194 261.028Z" fill="#47392E"/>
<path d="M431.597 264.031V265.832H432.198L431.597 264.031Z" fill="#575958"/>
<path d="M304.802 265.232L302.999 268.835C305.125 270.035 305.021 271.328 304.802 273.639L307.806 273.039V272.438H306.004L304.802 265.232Z" fill="#B59E90"/>
<path d="M424.386 265.832L422.583 271.838C420.785 271.876 419.972 271.805 419.579 273.639H420.18L424.386 272.438C424.09 269.961 423.398 268.482 426.189 267.634L425.588 265.832H424.386Z" fill="#896F60"/>
<path d="M422.583 272.438V273.039H424.987L426.189 268.234C422.703 267.088 424.562 271.094 422.583 272.438Z" fill="#544947"/>
<path d="M421.381 268.234V271.237H418.978C418.683 274.11 416.038 277.716 418.978 279.644C418.204 276.211 420.196 275.902 423.184 276.041V274.24L419.579 271.838H422.583V268.234H421.381Z" fill="#B29B89"/>
<path d="M302.398 269.435L304.802 272.438L305.403 269.435H302.398Z" fill="#5C4B41"/>
<path d="M304.201 272.438C304.97 275.25 306.602 277.934 309.609 278.443V277.843H307.806L309.609 276.041C308.776 273.097 306.689 273.423 304.201 272.438Z" fill="#978473"/>
<path d="M420.18 272.438V274.24L423.184 275.441H423.785L424.386 273.039L420.18 272.438Z" fill="#39322A"/>
<path d="M420.18 281.446H420.781L423.184 276.642C418.06 273.942 418.541 278.127 420.18 281.446Z" fill="#4A3F39"/>
<path d="M310.21 276.642V277.242L309.609 282.046L313.816 283.247L314.417 280.845L310.811 281.446L312.013 276.642H310.21Z" fill="#BF9D91"/>
<path d="M306.605 277.242L309.609 280.845L311.412 277.242H306.605Z" fill="#695648"/>
<path d="M419.579 279.644L417.776 280.845V281.446C419.187 281.269 420.15 281.15 419.579 279.644Z" fill="#A88977"/>
<path d="M415.973 280.245L416.574 286.25L411.767 287.451V288.052C417.226 289.98 417.088 285.453 420.18 282.046L415.973 280.245Z" fill="#6B5F51"/>
<path d="M309.008 280.845L311.412 283.247V285.649H312.013V282.647L309.008 280.845Z" fill="#3B2E25"/>
<path d="M310.21 282.046V282.647L312.614 283.848L313.215 282.046H310.21Z" fill="#685141"/>
<path d="M312.614 283.247C313.092 285.479 314.799 285.049 316.82 285.049L317.421 289.253H318.022L317.421 284.448L312.614 283.247Z" fill="#BFA594"/>
<path d="M312.013 283.848C312.491 286.079 314.198 285.649 316.219 285.649V291.054L319.224 292.255L319.825 289.853H317.421L316.82 285.049L312.013 283.848Z" fill="#8E7966"/>
<path d="M415.973 284.448C412.591 287.318 410.582 287.253 410.565 292.255H408.762C408.376 294.622 407.484 295.374 405.156 295.858L407.56 298.26V297.66L406.358 296.459L410.565 295.858L409.363 292.856L412.969 294.057L411.767 287.451C413.441 287.139 416.787 286.622 415.973 284.448Z" fill="#AD9B83"/>
<path d="M312.013 285.649V286.25L315.618 291.054H316.219V285.649H312.013Z" fill="#564940"/>
<path d="M411.767 288.052L412.969 293.456H413.569L415.372 289.253L411.767 288.052Z" fill="#362F27"/>
<path d="M319.825 289.853L318.623 293.456L321.027 294.057H321.628L319.825 289.853Z" fill="#B7A090"/>
<path d="M316.219 291.054L317.421 294.057H318.022L318.623 291.054H316.219Z" fill="#463F39"/>
<path d="M318.022 292.255L319.825 295.858L322.229 297.059H322.83L320.426 295.258L321.027 292.856L318.022 292.255Z" fill="#937C6A"/>
<path d="M409.363 292.856L410.565 295.858L406.358 296.459L408.161 300.062C405.917 300.1 403.285 299.968 402.753 302.464H403.354L408.762 300.662L412.368 294.657V294.057L409.363 292.856Z" fill="#77675A"/>
<path d="M318.623 294.057L321.027 296.459V299.461H322.83V301.864H323.431L324.031 298.26L321.628 298.861L322.229 295.858L318.623 294.057Z" fill="#695647"/>
<path d="M321.628 297.059L323.431 298.861V298.26L321.628 297.059Z" fill="#9E8D83"/>
<path d="M323.431 300.062L325.834 301.864V304.266L328.238 303.665C327.791 306.321 328.617 307.063 331.243 307.268L330.041 309.67L335.449 310.271L333.045 314.474L340.857 311.472V310.871L336.05 312.072L336.651 309.07L323.431 300.062Z" fill="#B69987"/>
<path d="M403.354 301.263L404.556 304.866L402.152 306.668H402.753L408.161 301.263H403.354Z" fill="#5B473E"/>
<path d="M323.431 301.864V302.464H325.233V305.467L331.243 310.271V309.67L330.041 309.07V308.469H331.243V307.268C328.844 306.883 328.159 306.097 328.238 303.665L325.834 304.266V301.864H323.431Z" fill="#857367"/>
<path d="M403.955 303.065L402.753 304.266V304.866C404.105 304.582 404.626 304.35 403.955 303.065Z" fill="#BDA297"/>
<path d="M400.95 303.665V306.668H397.945L399.748 311.472L398.546 307.268H402.152L402.753 303.665H400.95Z" fill="#98867A"/>
<path d="M397.945 304.266L400.349 306.067L397.945 304.266Z" fill="#FFDDCC"/>
<path d="M396.143 305.467V309.07V309.67L399.147 306.067L396.143 305.467Z" fill="#C4A795"/>
<path d="M402.152 306.668L398.546 307.268L399.748 310.871L402.152 306.668Z" fill="#786658"/>
<path d="M328.839 308.469V310.871H331.243L332.444 315.075L334.848 316.877H335.449L337.252 313.273L333.045 314.474L334.848 310.871L331.843 312.072L332.444 309.67L328.839 308.469Z" fill="#50473E"/>
<path d="M331.243 309.07V309.67L331.844 312.072L335.449 311.472L331.243 309.07Z" fill="#83756A"/>
<path d="M395.542 309.67L397.344 313.874L394.34 313.273V315.676L387.73 317.477L389.532 320.48L378.115 319.879V320.48L390.734 321.681L399.748 311.472L395.542 309.67Z" fill="#7A6256"/>
<path d="M335.449 312.673V313.273H337.252L335.449 316.877H336.05L340.857 315.075V311.472L335.449 312.673Z" fill="#887163"/>
<path d="M340.857 312.072V315.075L336.05 315.676L342.059 319.279V312.072H340.857Z" fill="#A2847A"/>
<path d="M342.059 312.072C342.059 314.659 340.82 320.429 343.862 321.08V320.48L342.059 312.072Z" fill="#C6A691"/>
<path d="M393.739 313.874L387.129 316.877L385.326 319.879L389.532 320.48L387.73 317.477C389.907 317.451 394.507 316.973 393.739 313.874Z" fill="#C0A592"/>
<path d="M364.894 318.678L366.697 322.281H362.491V324.683L356.482 323.482V324.083C358.652 325.002 361.335 326.092 363.092 324.083C365.07 324.614 366.793 325.239 367.298 322.882L373.307 324.083C371.833 321.767 369.996 319.839 372.106 317.477C370.835 313.653 365.903 315.602 364.894 318.678Z" fill="#957E6E"/>
<path d="M336.651 318.078C337.9 320.45 339.489 320.805 342.059 321.08L340.857 317.477L336.651 318.078Z" fill="#7A6457"/>
<path d="M345.665 318.678L346.266 321.681L348.669 321.08V323.482H351.073V322.882H349.27V320.48L345.665 318.678Z" fill="#AC917C"/>
<path d="M344.463 319.279L342.059 321.08V321.681H344.463L343.862 324.683C346.28 323.403 346.453 321.888 346.266 319.279H344.463Z" fill="#785D56"/>
<path d="M373.908 321.08L372.706 323.482L375.11 324.683V322.281L378.716 324.683L378.115 319.879L373.908 321.08Z" fill="#B1998D"/>
<path d="M339.055 321.08V321.681L343.862 323.482C344.803 320.97 340.761 320.818 339.055 321.08Z" fill="#332E28"/>
<path d="M377.514 320.48V324.683V325.284L388.932 321.681L377.514 320.48Z" fill="#564C40"/>
<path d="M347.468 321.08L348.069 324.083H351.073V323.482H348.669L347.468 321.08Z" fill="#807061"/>
<path d="M352.876 321.08L354.679 322.281L355.881 325.284L352.876 321.08Z" fill="#9A8572"/>
<path d="M346.867 321.681L346.266 324.683L348.069 321.681H346.867Z" fill="#231A0B"/>
<path d="M352.876 322.281V324.683H347.468H346.266L345.665 323.482C344.563 326.006 345.428 326.875 348.069 327.085C349.735 324.315 351.553 326.825 354.101 327.05C359.302 327.51 364.023 326.327 369.101 325.884V325.284H354.679V322.281H352.876Z" fill="#504533"/>
<path d="M375.11 322.281L373.908 324.683V325.284L376.312 322.281H375.11Z" fill="#735E4D"/>
<path d="M367.298 322.882V324.683H369.101V322.882H367.298Z" fill="#C7B1A3"/>
<path d="M352.275 323.482L351.073 324.083V324.683L352.275 323.482Z" fill="#AF8577"/>
<path d="M363.092 324.083L358.284 325.284V325.884L373.908 324.683L363.092 324.083Z" fill="#79655A"/>
<path d="M340.256 327.686C341.066 330.44 343.032 332.656 343.806 335.493C344.725 338.859 343.658 342.874 346.355 345.504C354.613 353.56 380.198 352.96 387.59 343.94C391.535 339.125 388.778 333.376 390.133 327.686C375.834 331.857 354.268 334.849 340.256 327.686Z" fill="#C98D71"/>
<path d="M390.133 338.495C388.698 344.551 383.606 347.114 378.115 348.726C367.77 351.761 351.494 352.462 344.463 342.699H343.862C343.797 349.863 338.51 353.678 332.444 356.511C346.365 375.412 375.405 373.954 394.34 364.432C400.51 361.329 404.725 355.262 410.565 352.307V351.707C401.122 349.544 396.454 345.319 390.133 338.495Z" fill="#E4BFAC"/>
<path d="M326.435 360.715C334.708 365.608 341.2 373.071 350.472 376.311C371.438 383.635 404.497 374.005 416.574 354.709C414.693 353.872 411.642 352.077 409.535 352.732C407.189 353.461 405.546 356.427 403.783 358.001C400.767 360.695 396.843 363.171 393.138 364.781C378.029 371.346 361.568 374.385 346.266 366.866C339.425 363.505 333.926 354.454 326.435 360.715Z" fill="#030303"/>
<path d="M299.393 375.127V375.728C309.838 375.761 317.595 362.468 328.238 361.916C324.79 360.315 321.669 362.594 318.623 364.219C312.165 367.666 305.984 372.012 299.393 375.127Z" fill="#CDCDCD"/>
<path d="M285.5 386L302 375C297.805 373.887 287.241 382.432 285.5 386Z" fill="#B7B7B7"/>
<path d="M285.572 385.336L278.5 399L280.164 397.346C281.995 394.573 287.18 388.541 285.572 385.336Z" fill="#D4D4D4"/>
<path d="M272.953 411.158C268.823 421.217 265.682 431.576 262.034 441.785C258.903 450.546 254.735 460.001 254.324 469.409H254.925L279.5 397L272.953 411.158Z" fill="#E0E0E0"/>
<path d="M417 355L416.5 355.5C427.192 360.563 443.535 363.781 451.746 372.989C456.841 378.701 457.298 387.419 459.772 394.344C465.586 410.623 471.939 426.936 476.667 443.586C477.767 440.519 475.95 436.891 474.896 433.978C472.817 428.232 470.702 422.395 468.87 416.563C465.616 406.208 462.297 396.09 458.648 385.927C457.154 381.769 456.78 376.982 454.091 373.328C447.333 364.145 427.987 356.889 417 355Z" fill="#E1E1E1"/>
<path d="M476 441L480.873 461.002H481.474C481.915 456.763 478.437 444.503 476 441Z" fill="#EAEAEA"/>
<path d="M480.844 458C476.337 472.4 460.351 482.548 447.793 489.227V486.224H447.192C447.192 488.102 446.361 492.748 448.156 493.96C450.817 495.757 458.07 491.557 460.413 490.225C468.085 485.866 475.114 478.687 479.666 471.211C482.18 467.082 484.047 462.3 480.844 458Z" fill="#030303"/>
<path d="M454.5 618C452.003 623.915 454.654 631.189 454.5 637.5C454.142 652.171 455.327 667.337 453.931 681.996C453.4 687.575 453.916 693.256 453.261 698.81C452.901 701.855 451.54 706.605 452.77 709.506C453.807 711.956 456.448 712.538 458.841 712.61C465.068 712.809 472.628 716.268 478.617 713.433C481.49 712.076 482.863 708.695 485.885 707.578C488.896 706.467 493.968 707.866 495.991 704.647C498.784 700.204 494.351 691.424 492.424 687.4C486.278 674.573 476.71 660.936 475.17 646.565C474.419 639.557 475.581 632.519 475.664 625.547C475.853 609.723 475.872 593.894 476.259 578.106C477.083 544.502 476.268 510.94 476.268 477.218C469.454 480.394 465.282 487.754 458.24 491.159C455.963 492.261 450.152 493.16 448.987 495.492C447.917 497.637 448.911 500.801 449.124 503.041C449.571 507.732 449.703 512.746 449.818 517.453C450.326 538.171 450.765 559.28 452.729 579.907C453.6 589.05 453.351 598.367 453.98 607.531C454.199 610.726 451.489 616.048 454.5 618Z" fill="#E3BEAB"/>
<path d="M255.006 466C254.699 468.083 253.562 470.514 254.182 472.606C255.268 476.271 259.279 478.265 262.217 480.213C270.692 485.832 281.397 490.326 291.662 491.222L291.898 485.322L285.052 483.484L271.832 478.59L255.006 466Z" fill="#030303"/>
<path d="M267.738 484C266.335 516.645 265.219 549.281 262.985 581.885C261.932 597.232 262.848 612.914 260.157 628.125C257.708 641.973 251.425 655.172 245.38 667.765C241.093 676.701 236.046 685.102 237.156 695.377C237.946 702.686 245.09 701.701 250.311 703.046C254.124 704.031 257.143 706.847 261.128 707.28C264.895 707.694 268.196 705.322 271.921 705.676C277.332 706.193 281.36 708.853 286.256 704.259C291.515 699.317 289.866 692.813 289.425 686.375C288.803 677.296 288.77 667.843 288.77 658.751C288.77 655.016 287.645 649.209 289.972 646.141V645.54L280.958 643.138C280.958 627.59 282.988 611.767 284.462 596.297C287.808 561.189 291.048 525.173 291.775 490.005H291.174C285.793 493.477 273.028 486.051 267.738 484Z" fill="#E3BEAB"/>
<path d="M290 645.802C289.989 745.836 298.413 845.979 298.413 946.062C298.413 965.399 299.212 984.495 300.765 1003.71C301.261 1009.84 300.63 1022.68 304.175 1027.68C308.665 1034.01 322.502 1035.41 329.661 1034.89C344.467 1033.8 344.66 1024.56 346.057 1012.72C348.375 993.095 344.939 972.917 347.259 953.268C348.629 941.672 347.689 929.518 347.689 917.838V853.582C347.689 796.016 348.891 738.87 348.891 681.232L405.378 680.031C405.378 770.109 399.375 860.206 399.369 950.266C399.367 967.921 398.915 985.504 398.143 1003.11C397.833 1010.18 395.575 1019.96 399.033 1026.53C401.851 1031.89 408.84 1033.35 414.392 1034.08C420.447 1034.87 432.303 1030.98 435.317 1025.31C436.696 1022.71 436.393 1019.16 436.904 1016.32C438.14 1009.46 439.349 1002.88 439.654 995.905C440.374 979.463 442.844 963.129 443.236 946.663C445.639 845.757 455.255 744.984 455.255 644C445.933 645.375 436.973 648.984 427.612 650.426C400.215 654.653 371.178 654.797 343.482 653.584C332.963 653.122 321.985 652.119 311.633 650.125C304.557 648.756 297.182 645.82 290 645.802Z" fill="#030303" fill-opacity="0.46"/>
<path d="M402.152 1033.3V1033.9C407.796 1043.66 396.653 1056.77 404.848 1066.38C407.338 1069.3 410.694 1073.8 415.144 1071.02C417.706 1069.43 418.636 1065.62 420.497 1063.35C422.508 1060.89 425.284 1059.96 427.992 1058.52C426.549 1050.76 425.544 1041.05 427.391 1033.3L414.771 1036.22L402.152 1033.3ZM309.008 1033.9C310.76 1037.24 312.25 1040.22 311.956 1044.11C311.762 1046.67 310.187 1049.33 310.707 1051.91C311.243 1054.59 313.611 1058.03 315.097 1060.32C316.818 1062.97 325.646 1071.25 328.813 1070.16C331.577 1069.2 331.836 1066.04 333.381 1063.98C334.385 1062.65 336.269 1061.82 336.835 1060.2C337.516 1058.24 336.654 1055.19 336.651 1053.12V1035.7L309.008 1033.9Z" fill="#E3BEAB"/>
<path d="M339.085 1060.75C336.71 1061.06 333.963 1061.29 332.363 1063.29C330.701 1065.38 329.867 1069.98 326.465 1069.98C324.087 1069.98 322.868 1067.24 321.349 1065.86C319.012 1063.72 316.256 1062.87 314.327 1060.15C312.455 1057.51 311.455 1052.92 308.242 1051.5C305.34 1050.23 300.526 1051.68 297.621 1052.44C288.258 1054.87 278.068 1058.77 269.377 1063.01C265.793 1064.76 258.403 1068.04 261.93 1073.31C265.393 1078.48 274.994 1081.14 280.795 1081.87C294.732 1083.6 308.486 1084.29 322.259 1080.54C326.825 1079.3 332.913 1080.41 336.592 1076.83C340.163 1073.35 339.085 1065.34 339.085 1060.75Z" fill="#030303"/>
<path d="M260 1073C260.529 1075.22 259.968 1078.63 261.219 1080.52C263.997 1084.73 271.746 1085.95 276.225 1086.88C290.06 1089.76 302.621 1091.42 316.487 1088.26C322.793 1086.82 329.792 1083.43 336.318 1083.81L336.919 1081.41C319.956 1088.6 297.771 1090.91 279.831 1086.67C274.616 1085.44 258.555 1082.81 263.005 1074.8L260 1073Z" fill="#D6D6D6"/>
<path d="M398.118 1062.06C395.395 1066.54 394.623 1076.63 399.932 1079.62C403.465 1081.6 407.528 1080.95 411.338 1081.77C415.656 1082.7 419.591 1084.87 423.958 1085.71C435.288 1087.89 448.571 1087.74 460.013 1086.25C464.894 1085.62 471.337 1085.61 475.635 1083.1C477.242 1082.17 479.836 1080.49 479.089 1078.27C478.149 1075.49 474.394 1074.45 472.032 1073.31C465.825 1070.32 459.669 1067.28 453.403 1064.41C445.611 1060.84 436.892 1056.85 428.164 1058.31C424.151 1058.98 421.085 1060.33 418.828 1063.86C417.451 1066.02 415.966 1070.94 413.078 1071.37C407.719 1072.18 403.49 1063.5 398.118 1062.06Z" fill="#030303"/>
<path d="M396.744 1079.54C396.974 1082.09 397.501 1084.14 399.748 1085.54L396.744 1079.54Z" fill="#BEBEBE"/>
<path d="M399 1078C400.257 1086.35 407.667 1086.48 414.624 1087.66C429.615 1090.18 446.318 1092.75 461.496 1090.78C468.627 1089.85 478.156 1090.39 478.923 1081.6C457.019 1087.86 435.759 1087.46 414.077 1081.59C408.734 1080.14 404.483 1080.88 399 1078Z" fill="#FDFDFD"/>
<path d="M478.923 1080.4L478.322 1087.01H478.923L480.125 1080.4H478.923Z" fill="#C9C9C9"/>
<path d="M399.601 1084.01C403.64 1088.8 414.119 1089.36 420.032 1089.41V1088.81C414.312 1087.21 405.801 1087.67 401.404 1083.4L399.601 1084.01Z" fill="#D3D3D3"/>
<path d="M460.695 1085.4L461.096 1085.61L460.695 1085.4Z" fill="#C0C0C0"/>
<path d="M477.721 1085.81C475.563 1089.73 467.434 1090 463.299 1090.51C448.589 1092.35 433.405 1090.17 418.831 1088.21V1088.81C420.008 1089.2 420.365 1089.41 418.831 1089.41V1090.01C438.933 1090.42 459.192 1095.56 478.923 1088.21L477.721 1085.81Z" fill="#E5E5E5"/>
<path d="M448.5 488.5V494.5L450 513V533.5L454.5 605.5V643.5L446.5 646L429 650L401.5 653.5L365 654.5L336 653.5L315.5 651L290.5 645.5L281 643V635L289 543L291.5 485.5L271.5 478L255.5 466.5L273.5 415L279.5 398.5L286.5 385.5L300.5 375.5L326.5 361.5L333.5 365.5L349.5 377L363 379H372L386 375.5L400.5 369.5L407.5 365.5L416.5 355.5L433 361.5L447.5 369.5L453 375.5L464.5 408.5L480.5 457.5L479 463L469.5 475L454 486L448.5 488.5Z" fill="#F4EEEE"/>
<path d="M287 386L311 655H420L448 386H287Z" stroke="black" stroke-miterlimit="10"/>
<path d="M287.302 390L275.564 492.027L263.16 654.977" stroke="black" stroke-miterlimit="10"/>
<path d="M448.367 389L458.821 491.669L468.995 654.778" stroke="black" stroke-miterlimit="10"/>
<path d="M311.1 656.5L317.5 816.7V1024.7" stroke="black" stroke-miterlimit="10"/>
<path d="M420.1 656.5V817.5V1025.5" stroke="black" stroke-miterlimit="10"/>
<path d="M287.1 396.4C291.629 396.4 295.3 392.729 295.3 388.2C295.3 383.671 291.629 380 287.1 380C282.571 380 278.9 383.671 278.9 388.2C278.9 392.729 282.571 396.4 287.1 396.4Z" fill="black"/>
<path d="M283.844 492.678C284.362 488.179 281.134 484.112 276.635 483.594C272.136 483.077 268.069 486.304 267.552 490.803C267.034 495.302 270.262 499.369 274.761 499.887C279.26 500.404 283.327 497.177 283.844 492.678Z" fill="black"/>
<path d="M271.23 655.704C271.747 651.205 268.52 647.138 264.021 646.621C259.522 646.103 255.455 649.331 254.937 653.83C254.42 658.329 257.647 662.396 262.146 662.913C266.645 663.431 270.712 660.203 271.23 655.704Z" fill="black"/>
<path d="M311.2 664.4C315.729 664.4 319.4 660.729 319.4 656.2C319.4 651.671 315.729 648 311.2 648C306.671 648 303 651.671 303 656.2C303 660.729 306.671 664.4 311.2 664.4Z" fill="black"/>
<path d="M317.6 824.6C322.129 824.6 325.8 820.929 325.8 816.4C325.8 811.871 322.129 808.2 317.6 808.2C313.071 808.2 309.4 811.871 309.4 816.4C309.4 820.929 313.071 824.6 317.6 824.6Z" fill="black"/>
<path d="M317.6 1032.6C322.129 1032.6 325.8 1028.93 325.8 1024.4C325.8 1019.87 322.129 1016.2 317.6 1016.2C313.071 1016.2 309.4 1019.87 309.4 1024.4C309.4 1028.93 313.071 1032.6 317.6 1032.6Z" fill="black"/>
<path d="M450.842 492.281C451.3 496.786 455.325 500.066 459.83 499.608C464.335 499.149 467.616 495.125 467.157 490.619C466.698 486.114 462.674 482.833 458.169 483.292C453.663 483.751 450.383 487.775 450.842 492.281Z" fill="black"/>
<path d="M461.125 655.478C461.584 659.984 465.608 663.264 470.114 662.805C474.619 662.347 477.9 658.322 477.441 653.817C476.982 649.312 472.958 646.031 468.452 646.49C463.947 646.949 460.666 650.973 461.125 655.478Z" fill="black"/>
<path d="M420.2 664.4C424.729 664.4 428.4 660.729 428.4 656.2C428.4 651.671 424.729 648 420.2 648C415.671 648 412 651.671 412 656.2C412 660.729 415.671 664.4 420.2 664.4Z" fill="black"/>
<path d="M420.2 825.4C424.729 825.4 428.4 821.729 428.4 817.2C428.4 812.671 424.729 809 420.2 809C415.671 809 412 812.671 412 817.2C412 821.729 415.671 825.4 420.2 825.4Z" fill="black"/>
<path d="M420.2 1033.4C424.729 1033.4 428.4 1029.73 428.4 1025.2C428.4 1020.67 424.729 1017 420.2 1017C415.671 1017 412 1020.67 412 1025.2C412 1029.73 415.671 1033.4 420.2 1033.4Z" fill="black"/>
<path d="M303.384 188.119L310.304 182.657L321.031 181.181H333.661L350.616 187.086" stroke="black" stroke-miterlimit="10"/>
<path d="M310.304 183.838C311.069 183.838 311.688 183.309 311.688 182.657C311.688 182.005 311.069 181.476 310.304 181.476C309.54 181.476 308.92 182.005 308.92 182.657C308.92 183.309 309.54 183.838 310.304 183.838Z" fill="black"/>
<path d="M350.616 188.267C351.38 188.267 352 187.738 352 187.086C352 186.434 351.38 185.905 350.616 185.905C349.852 185.905 349.232 186.434 349.232 187.086C349.232 187.738 349.852 188.267 350.616 188.267Z" fill="black"/>
<path d="M333.661 182.362C334.425 182.362 335.045 181.833 335.045 181.181C335.045 180.529 334.425 180 333.661 180C332.896 180 332.277 180.529 332.277 181.181C332.277 181.833 332.896 182.362 333.661 182.362Z" fill="black"/>
<path d="M303.384 189.3C304.148 189.3 304.768 188.771 304.768 188.119C304.768 187.467 304.148 186.938 303.384 186.938C302.62 186.938 302 187.467 302 188.119C302 188.771 302.62 189.3 303.384 189.3Z" fill="black"/>
<path d="M321.031 182.362C321.796 182.362 322.415 181.833 322.415 181.181C322.415 180.529 321.796 180 321.031 180C320.267 180 319.647 180.529 319.647 181.181C319.647 181.833 320.267 182.362 321.031 182.362Z" fill="black"/>
<path d="M312.443 212.842L321.82 203.105H333.18L342.557 214.158L333.18 216.789L321.82 218.895L312.443 212.842Z" stroke="black" stroke-miterlimit="10"/>
<path d="M312.443 214.947C313.239 214.947 313.885 214.005 313.885 212.842C313.885 211.679 313.239 210.737 312.443 210.737C311.646 210.737 311 211.679 311 212.842C311 214.005 311.646 214.947 312.443 214.947Z" fill="black"/>
<path d="M321.82 205.211C322.616 205.211 323.262 204.268 323.262 203.105C323.262 201.943 322.616 201 321.82 201C321.023 201 320.377 201.943 320.377 203.105C320.377 204.268 321.023 205.211 321.82 205.211Z" fill="black"/>
<path d="M321.82 221C322.616 221 323.262 220.057 323.262 218.895C323.262 217.732 322.616 216.79 321.82 216.79C321.023 216.79 320.377 217.732 320.377 218.895C320.377 220.057 321.023 221 321.82 221Z" fill="black"/>
<path d="M333.18 205.211C333.977 205.211 334.623 204.268 334.623 203.105C334.623 201.943 333.977 201 333.18 201C332.384 201 331.738 201.943 331.738 203.105C331.738 204.268 332.384 205.211 333.18 205.211Z" fill="black"/>
<path d="M342.557 216.263C343.354 216.263 344 215.321 344 214.158C344 212.995 343.354 212.053 342.557 212.053C341.761 212.053 341.115 212.995 341.115 214.158C341.115 215.321 341.761 216.263 342.557 216.263Z" fill="black"/>
<path d="M333.18 218.895C333.977 218.895 334.623 217.952 334.623 216.789C334.623 215.627 333.977 214.684 333.18 214.684C332.384 214.684 331.738 215.627 331.738 216.789C331.738 217.952 332.384 218.895 333.18 218.895Z" fill="black"/>
<path d="M427.378 178.8L420.892 174.45L410.676 172.2L398.838 172.8L382.621 177.6" stroke="black" stroke-miterlimit="10"/>
<path d="M421.216 175.65C421.933 175.65 422.514 175.113 422.514 174.45C422.514 173.787 421.933 173.25 421.216 173.25C420.5 173.25 419.919 173.787 419.919 174.45C419.919 175.113 420.5 175.65 421.216 175.65Z" fill="black"/>
<path d="M382.297 178.95C383.014 178.95 383.595 178.413 383.595 177.75C383.595 177.087 383.014 176.55 382.297 176.55C381.581 176.55 381 177.087 381 177.75C381 178.413 381.581 178.95 382.297 178.95Z" fill="black"/>
<path d="M399.162 174C399.878 174 400.459 173.463 400.459 172.8C400.459 172.137 399.878 171.6 399.162 171.6C398.445 171.6 397.865 172.137 397.865 172.8C397.865 173.463 398.445 174 399.162 174Z" fill="black"/>
<path d="M427.703 180C428.419 180 429 179.463 429 178.8C429 178.137 428.419 177.6 427.703 177.6C426.986 177.6 426.405 178.137 426.405 178.8C426.405 179.463 426.986 180 427.703 180Z" fill="black"/>
<path d="M411 173.4C411.716 173.4 412.297 172.863 412.297 172.2C412.297 171.537 411.716 171 411 171C410.283 171 409.703 171.537 409.703 172.2C409.703 172.863 410.283 173.4 411 173.4Z" fill="black"/>
<path d="M341.644 252.711H352.332L363.636 254.356V243.462V228.87V217.565V205.644" stroke="black" stroke-miterlimit="10"/>
<path d="M385.012 252.711H374.735L363.636 254.356" stroke="black" stroke-miterlimit="10"/>
<path d="M363.636 219.209C364.544 219.209 365.281 218.473 365.281 217.565C365.281 216.657 364.544 215.921 363.636 215.921C362.728 215.921 361.992 216.657 361.992 217.565C361.992 218.473 362.728 219.209 363.636 219.209Z" fill="black"/>
<path d="M363.636 207.289C364.544 207.289 365.281 206.552 365.281 205.644C365.281 204.736 364.544 204 363.636 204C362.728 204 361.992 204.736 361.992 205.644C361.992 206.552 362.728 207.289 363.636 207.289Z" fill="black"/>
<path d="M363.636 245.107C364.544 245.107 365.281 244.371 365.281 243.462C365.281 242.554 364.544 241.818 363.636 241.818C362.728 241.818 361.992 242.554 361.992 243.462C361.992 244.371 362.728 245.107 363.636 245.107Z" fill="black"/>
<path d="M341.644 254.356C342.552 254.356 343.288 253.62 343.288 252.711C343.288 251.803 342.552 251.067 341.644 251.067C340.736 251.067 340 251.803 340 252.711C340 253.62 340.736 254.356 341.644 254.356Z" fill="black"/>
<path d="M352.332 254.356C353.24 254.356 353.976 253.62 353.976 252.711C353.976 251.803 353.24 251.067 352.332 251.067C351.424 251.067 350.688 251.803 350.688 252.711C350.688 253.62 351.424 254.356 352.332 254.356Z" fill="black"/>
<path d="M363.636 230.514C364.544 230.514 365.281 229.778 365.281 228.87C365.281 227.961 364.544 227.225 363.636 227.225C362.728 227.225 361.992 227.961 361.992 228.87C361.992 229.778 362.728 230.514 363.636 230.514Z" fill="black"/>
<path d="M363.636 256C364.544 256 365.281 255.264 365.281 254.356C365.281 253.448 364.544 252.711 363.636 252.711C362.728 252.711 361.992 253.448 361.992 254.356C361.992 255.264 362.728 256 363.636 256Z" fill="black"/>
<path d="M385.012 254.356C385.92 254.356 386.656 253.62 386.656 252.711C386.656 251.803 385.92 251.067 385.012 251.067C384.104 251.067 383.367 251.803 383.367 252.711C383.367 253.62 384.104 254.356 385.012 254.356Z" fill="black"/>
<path d="M375.146 254.356C376.054 254.356 376.79 253.62 376.79 252.711C376.79 251.803 376.054 251.067 375.146 251.067C374.238 251.067 373.502 251.803 373.502 252.711C373.502 253.62 374.238 254.356 375.146 254.356Z" fill="black"/>
<path d="M338.335 281.845L349.85 276.171L360.697 274.335L367.539 275.837L374.548 274.335L385.228 276.171L396.743 281.845L386.063 292.358L374.214 297.031L367.539 297.865L360.697 297.031L349.015 292.358L338.335 281.845Z" stroke="black" stroke-miterlimit="10"/>
<path d="M338.335 281.845L344.343 282.345L361.031 281.01L367.539 281.845L374.214 281.01L390.735 282.345L396.743 281.845" stroke="black" stroke-miterlimit="10"/>
<path d="M338.335 281.845L344.343 282.345L361.031 285.85L367.539 287.185L374.214 285.85L390.735 282.345L396.743 281.845" stroke="black" stroke-miterlimit="10"/>
<path d="M338.335 283.18C339.072 283.18 339.67 282.582 339.67 281.845C339.67 281.107 339.072 280.51 338.335 280.51C337.598 280.51 337 281.107 337 281.845C337 282.582 337.598 283.18 338.335 283.18Z" fill="black"/>
<path d="M349.85 277.506C350.587 277.506 351.185 276.908 351.185 276.171C351.185 275.433 350.587 274.836 349.85 274.836C349.112 274.836 348.515 275.433 348.515 276.171C348.515 276.908 349.112 277.506 349.85 277.506Z" fill="black"/>
<path d="M367.539 277.172C368.276 277.172 368.874 276.574 368.874 275.837C368.874 275.1 368.276 274.502 367.539 274.502C366.802 274.502 366.204 275.1 366.204 275.837C366.204 276.574 366.802 277.172 367.539 277.172Z" fill="black"/>
<path d="M360.697 275.67C361.434 275.67 362.032 275.072 362.032 274.335C362.032 273.598 361.434 273 360.697 273C359.96 273 359.362 273.598 359.362 274.335C359.362 275.072 359.96 275.67 360.697 275.67Z" fill="black"/>
<path d="M344.343 281.01C345.01 281.01 345.678 281.678 345.678 282.345C345.678 283.013 345.01 283.68 344.343 283.68C343.675 283.68 343.008 283.013 343.008 282.345C343.008 281.678 343.675 281.01 344.343 281.01Z" fill="black"/>
<path d="M367.539 299.2C368.276 299.2 368.874 298.602 368.874 297.865C368.874 297.128 368.276 296.53 367.539 296.53C366.802 296.53 366.204 297.128 366.204 297.865C366.204 298.602 366.802 299.2 367.539 299.2Z" fill="black"/>
<path d="M367.539 283.18C368.276 283.18 368.874 282.582 368.874 281.845C368.874 281.107 368.276 280.51 367.539 280.51C366.802 280.51 366.204 281.107 366.204 281.845C366.204 282.582 366.802 283.18 367.539 283.18Z" fill="black"/>
<path d="M367.539 288.353C368.276 288.353 368.874 287.755 368.874 287.018C368.874 286.281 368.276 285.683 367.539 285.683C366.802 285.683 366.204 286.281 366.204 287.018C366.204 287.755 366.802 288.353 367.539 288.353Z" fill="black"/>
<path d="M361.031 282.345C361.768 282.345 362.366 281.748 362.366 281.01C362.366 280.273 361.768 279.675 361.031 279.675C360.293 279.675 359.696 280.273 359.696 281.01C359.696 281.748 360.293 282.345 361.031 282.345Z" fill="black"/>
<path d="M361.031 287.185C361.768 287.185 362.366 286.587 362.366 285.85C362.366 285.112 361.768 284.515 361.031 284.515C360.293 284.515 359.696 285.112 359.696 285.85C359.696 286.587 360.293 287.185 361.031 287.185Z" fill="black"/>
<path d="M360.697 298.366C361.434 298.366 362.032 297.768 362.032 297.031C362.032 296.293 361.434 295.696 360.697 295.696C359.96 295.696 359.362 296.293 359.362 297.031C359.362 297.768 359.96 298.366 360.697 298.366Z" fill="black"/>
<path d="M349.015 293.693C349.753 293.693 350.35 293.095 350.35 292.358C350.35 291.621 349.753 291.023 349.015 291.023C348.278 291.023 347.68 291.621 347.68 292.358C347.68 293.095 348.278 293.693 349.015 293.693Z" fill="black"/>
<path d="M396.743 283.18C397.48 283.18 398.078 282.582 398.078 281.845C398.078 281.107 397.48 280.51 396.743 280.51C396.005 280.51 395.408 281.107 395.408 281.845C395.408 282.582 396.005 283.18 396.743 283.18Z" fill="black"/>
<path d="M385.228 277.506C385.965 277.506 386.563 276.908 386.563 276.171C386.563 275.433 385.965 274.836 385.228 274.836C384.491 274.836 383.893 275.433 383.893 276.171C383.893 276.908 384.491 277.506 385.228 277.506Z" fill="black"/>
<path d="M374.548 275.67C375.285 275.67 375.883 275.072 375.883 274.335C375.883 273.598 375.285 273 374.548 273C373.811 273 373.213 273.598 373.213 274.335C373.213 275.072 373.811 275.67 374.548 275.67Z" fill="black"/>
<path d="M390.735 281.01C391.403 281.01 392.07 281.678 392.07 282.345C392.07 283.013 391.403 283.68 390.735 283.68C390.068 283.68 389.4 283.013 389.4 282.345C389.4 281.678 390.068 281.01 390.735 281.01Z" fill="black"/>
<path d="M374.214 282.345C374.951 282.345 375.549 281.748 375.549 281.01C375.549 280.273 374.951 279.675 374.214 279.675C373.477 279.675 372.879 280.273 372.879 281.01C372.879 281.748 373.477 282.345 374.214 282.345Z" fill="black"/>
<path d="M374.214 287.185C374.951 287.185 375.549 286.587 375.549 285.85C375.549 285.112 374.951 284.515 374.214 284.515C373.477 284.515 372.879 285.112 372.879 285.85C372.879 286.587 373.477 287.185 374.214 287.185Z" fill="black"/>
<path d="M374.548 298.366C375.285 298.366 375.883 297.768 375.883 297.031C375.883 296.293 375.285 295.696 374.548 295.696C373.811 295.696 373.213 296.293 373.213 297.031C373.213 297.768 373.811 298.366 374.548 298.366Z" fill="black"/>
<path d="M386.062 293.693C386.8 293.693 387.398 293.095 387.398 292.358C387.398 291.621 386.8 291.023 386.062 291.023C385.325 291.023 384.727 291.621 384.727 292.358C384.727 293.095 385.325 293.693 386.062 293.693Z" fill="black"/>
<path d="M418.145 210.882L407.684 203.579H395.25L385.184 211.868L395.25 213.842L407.684 215.421L418.145 210.882Z" stroke="black" stroke-miterlimit="10"/>
<path d="M418.539 212.46C419.412 212.46 420.118 211.754 420.118 210.882C420.118 210.01 419.412 209.303 418.539 209.303C417.667 209.303 416.961 210.01 416.961 210.882C416.961 211.754 417.667 212.46 418.539 212.46Z" fill="black"/>
<path d="M408.276 205.158C409.148 205.158 409.855 204.451 409.855 203.579C409.855 202.707 409.148 202 408.276 202C407.404 202 406.697 202.707 406.697 203.579C406.697 204.451 407.404 205.158 408.276 205.158Z" fill="black"/>
<path d="M408.276 217C409.148 217 409.855 216.293 409.855 215.421C409.855 214.549 409.148 213.842 408.276 213.842C407.404 213.842 406.697 214.549 406.697 215.421C406.697 216.293 407.404 217 408.276 217Z" fill="black"/>
<path d="M395.842 205.158C396.714 205.158 397.421 204.451 397.421 203.579C397.421 202.707 396.714 202 395.842 202C394.97 202 394.263 202.707 394.263 203.579C394.263 204.451 394.97 205.158 395.842 205.158Z" fill="black"/>
<path d="M385.579 213.447C386.451 213.447 387.158 212.74 387.158 211.868C387.158 210.996 386.451 210.289 385.579 210.289C384.707 210.289 384 210.996 384 211.868C384 212.74 384.707 213.447 385.579 213.447Z" fill="black"/>
<path d="M395.842 215.421C396.714 215.421 397.421 214.714 397.421 213.842C397.421 212.97 396.714 212.263 395.842 212.263C394.97 212.263 394.263 212.97 394.263 213.842C394.263 214.714 394.97 215.421 395.842 215.421Z" fill="black"/>
<path d="M364.919 127.249L332.619 131.154L312.228 145.99L298.199 168.011L294.121 182.535L292.816 200.807V215.644L294.121 249.533L305.214 280.768L319.5 304L334 319L347.5 327L366.5 329.5L384.5 327L396.5 319L408.5 304L424.297 281.236L435.39 250.002L436.695 216.268V201.276L435.39 183.003L431.312 168.635L417.935 145.99L397.381 131.154L364.919 127.249Z" stroke="black" stroke-miterlimit="10"/>
<path d="M365.305 328.499C366.026 328.499 366.61 327.939 366.61 327.249C366.61 326.559 366.026 326 365.305 326C364.584 326 364 326.559 364 327.249C364 327.939 364.584 328.499 365.305 328.499Z" fill="black"/>
<path d="M333.305 319.499C334.026 319.499 334.61 318.939 334.61 318.249C334.61 317.559 334.026 317 333.305 317C332.584 317 332 317.559 332 318.249C332 318.939 332.584 319.499 333.305 319.499Z" fill="black"/>
<path d="M321.305 304.499C322.026 304.499 322.61 303.939 322.61 303.249C322.61 302.559 322.026 302 321.305 302C320.584 302 320 302.559 320 303.249C320 303.939 320.584 304.499 321.305 304.499Z" fill="black"/>
<path d="M305.703 282.017C306.424 282.017 307.008 281.458 307.008 280.768C307.008 280.078 306.424 279.518 305.703 279.518C304.982 279.518 304.398 280.078 304.398 280.768C304.398 281.458 304.982 282.017 305.703 282.017Z" fill="black"/>
<path d="M294.61 250.783C295.331 250.783 295.915 250.223 295.915 249.533C295.915 248.843 295.331 248.284 294.61 248.284C293.889 248.284 293.305 248.843 293.305 249.533C293.305 250.223 293.889 250.783 294.61 250.783Z" fill="black"/>
<path d="M293.305 216.893C294.026 216.893 294.61 216.334 294.61 215.643C294.61 214.953 294.026 214.394 293.305 214.394C292.584 214.394 292 214.953 292 215.643C292 216.334 292.584 216.893 293.305 216.893Z" fill="black"/>
<path d="M293.305 202.056C294.026 202.056 294.61 201.497 294.61 200.807C294.61 200.117 294.026 199.558 293.305 199.558C292.584 199.558 292 200.117 292 200.807C292 201.497 292.584 202.056 293.305 202.056Z" fill="black"/>
<path d="M294.61 183.784C295.331 183.784 295.915 183.225 295.915 182.535C295.915 181.845 295.331 181.285 294.61 181.285C293.889 181.285 293.305 181.845 293.305 182.535C293.305 183.225 293.889 183.784 294.61 183.784Z" fill="black"/>
<path d="M298.688 169.26C299.409 169.26 299.993 168.701 299.993 168.011C299.993 167.321 299.409 166.761 298.688 166.761C297.968 166.761 297.383 167.321 297.383 168.011C297.383 168.701 297.968 169.26 298.688 169.26Z" fill="black"/>
<path d="M365.734 128.499C366.455 128.499 367.039 127.939 367.039 127.249C367.039 126.559 366.455 126 365.734 126C365.013 126 364.429 126.559 364.429 127.249C364.429 127.939 365.013 128.499 365.734 128.499Z" fill="black"/>
<path d="M397.87 132.403C398.591 132.403 399.175 131.844 399.175 131.154C399.175 130.464 398.591 129.904 397.87 129.904C397.15 129.904 396.565 130.464 396.565 131.154C396.565 131.844 397.15 132.403 397.87 132.403Z" fill="black"/>
<path d="M418.424 147.24C419.145 147.24 419.729 146.68 419.729 145.99C419.729 145.3 419.145 144.741 418.424 144.741C417.704 144.741 417.119 145.3 417.119 145.99C417.119 146.68 417.704 147.24 418.424 147.24Z" fill="black"/>
<path d="M396.305 319.499C397.026 319.499 397.61 318.939 397.61 318.249C397.61 317.559 397.026 317 396.305 317C395.584 317 395 317.559 395 318.249C395 318.939 395.584 319.499 396.305 319.499Z" fill="black"/>
<path d="M407.305 303.499C408.026 303.499 408.61 302.939 408.61 302.249C408.61 301.559 408.026 301 407.305 301C406.584 301 406 301.559 406 302.249C406 302.939 406.584 303.499 407.305 303.499Z" fill="black"/>
<path d="M423.305 282.499C424.026 282.499 424.61 281.939 424.61 281.249C424.61 280.559 424.026 280 423.305 280C422.584 280 422 280.559 422 281.249C422 281.939 422.584 282.499 423.305 282.499Z" fill="black"/>
<path d="M435.879 251.251C436.6 251.251 437.184 250.692 437.184 250.002C437.184 249.312 436.6 248.752 435.879 248.752C435.158 248.752 434.574 249.312 434.574 250.002C434.574 250.692 435.158 251.251 435.879 251.251Z" fill="black"/>
<path d="M436.695 217.518C437.416 217.518 438 216.958 438 216.268C438 215.578 437.416 215.019 436.695 215.019C435.974 215.019 435.39 215.578 435.39 216.268C435.39 216.958 435.974 217.518 436.695 217.518Z" fill="black"/>
<path d="M436.695 202.525C437.416 202.525 438 201.966 438 201.276C438 200.586 437.416 200.026 436.695 200.026C435.974 200.026 435.39 200.586 435.39 201.276C435.39 201.966 435.974 202.525 436.695 202.525Z" fill="black"/>
<path d="M435.39 184.253C436.111 184.253 436.695 183.693 436.695 183.003C436.695 182.313 436.111 181.754 435.39 181.754C434.669 181.754 434.085 182.313 434.085 183.003C434.085 183.693 434.669 184.253 435.39 184.253Z" fill="black"/>
<path d="M431.801 169.885C432.522 169.885 433.106 169.325 433.106 168.635C433.106 167.945 432.522 167.386 431.801 167.386C431.08 167.386 430.496 167.945 430.496 168.635C430.496 169.325 431.08 169.885 431.801 169.885Z" fill="black"/>
<path d="M333.271 132.403C333.992 132.403 334.576 131.844 334.576 131.154C334.576 130.464 333.992 129.904 333.271 129.904C332.551 129.904 331.966 130.464 331.966 131.154C331.966 131.844 332.551 132.403 333.271 132.403Z" fill="black"/>
<path d="M312.717 147.24C313.438 147.24 314.022 146.68 314.022 145.99C314.022 145.3 313.438 144.741 312.717 144.741C311.997 144.741 311.412 145.3 311.412 145.99C311.412 146.68 311.997 147.24 312.717 147.24Z" fill="black"/>
<path d="M447.2 396.4C451.729 396.4 455.4 392.729 455.4 388.2C455.4 383.671 451.729 380 447.2 380C442.671 380 439 383.671 439 388.2C439 392.729 442.671 396.4 447.2 396.4Z" fill="black"/>
</svg>
